<svg width="38" height="24" viewBox="0 0 38 24" fill="none" xmlns="http://www.w3.org/2000/svg">
<path fill-rule="evenodd" clip-rule="evenodd" d="M30.3173 7.90779C29.5881 7.38966 28.8243 6.92194 28.0313 6.5079C27.234 6.09353 26.4082 5.73672 25.5601 5.44019C22.1132 4.2145 18.3891 3.99316 14.8213 4.80194C11.2397 5.61825 7.96065 7.42737 5.36014 10.0219C5.35258 10.0301 5.34341 10.0366 5.3332 10.0411C5.32299 10.0455 5.31198 10.0479 5.30083 10.0479C5.28969 10.0479 5.27864 10.0455 5.26843 10.0411C5.25822 10.0366 5.24905 10.0301 5.24149 10.0219C5.22793 10.0109 5.21923 9.99509 5.21724 9.97778C5.21524 9.96047 5.2201 9.94307 5.23081 9.92933C7.28748 5.89453 10.7805 2.77611 15.0218 1.18832C19.385 -0.399769 24.1688 -0.395988 28.5295 1.199C29.5338 1.55602 30.5081 1.9924 31.4432 2.50398C32.4557 3.09351 33.4229 3.75773 34.3367 4.49111C34.3455 4.49801 34.3527 4.50662 34.358 4.51642C34.3633 4.52623 34.3666 4.53702 34.3676 4.54813C34.3686 4.55924 34.3673 4.57043 34.3638 4.58103C34.3604 4.59163 34.3547 4.6014 34.3473 4.60975L30.4324 7.90423C30.4154 7.91536 30.3957 7.92159 30.3754 7.92221C30.3551 7.92284 30.335 7.91785 30.3173 7.90779Z" fill="#3754E2"/>
<path fill-rule="evenodd" clip-rule="evenodd" d="M32.0576 23.9071C32.0576 23.5772 32.0576 23.2581 32.0375 22.939L30.946 23.0114C30.9567 23.3198 30.9662 23.6045 30.9662 23.9177H32.0576V23.9071ZM31.7017 20.6849C31.6092 20.3148 31.506 19.9435 31.3933 19.5828L30.3529 19.9387C30.4715 20.2685 30.5593 20.6078 30.6411 20.9471L31.7017 20.6897V20.6849ZM30.4869 17.4818C30.3113 17.152 30.1061 16.8127 29.8997 16.5042L28.9838 17.0974C29.1689 17.3857 29.354 17.6906 29.5189 17.9931L30.4869 17.4782V17.4818ZM28.4998 14.7129C28.2423 14.4353 27.9647 14.1671 27.6859 13.9097L26.9551 14.7235C27.2126 14.9608 27.4593 15.1981 27.6966 15.4543L28.4998 14.7129ZM25.8637 12.53C25.5339 12.3236 25.2148 12.1385 24.8755 11.9641L24.3808 12.9416C24.6892 13.1065 24.9882 13.2714 25.2871 13.4565L25.8637 12.53ZM22.765 11.1064C22.4091 10.9877 22.0342 10.8999 21.6628 10.8181L21.4363 11.8858C21.7756 11.9582 22.116 12.0507 22.4446 12.1539L22.7638 11.104L22.765 11.1064ZM19.3981 10.5191C19.0173 10.5084 18.646 10.5084 18.2557 10.5191L18.3067 11.6106C18.6571 11.6003 19.007 11.6003 19.3566 11.6106L19.3981 10.5191ZM15.9898 10.8074C15.6196 10.8893 15.2483 10.983 14.8876 11.0957L15.2174 12.1361C15.5472 12.0329 15.8865 11.9404 16.2258 11.868L15.9886 10.8074H15.9898ZM12.7771 11.9712C12.4378 12.1468 12.108 12.3271 11.7889 12.5371L12.3761 13.4636C12.6721 13.276 12.9778 13.1041 13.292 12.9488L12.7771 11.9712ZM9.96664 13.9073C9.67836 14.1648 9.41027 14.4329 9.15284 14.7105L9.956 15.452C10.1933 15.1945 10.44 14.9572 10.6975 14.7212L9.96664 13.9073ZM7.74224 16.5019C7.53582 16.821 7.34126 17.1508 7.16568 17.4794L8.13375 17.9943C8.29866 17.6858 8.47304 17.3869 8.66878 17.0879L7.74224 16.5007V16.5019ZM6.26999 19.5804C6.15135 19.9363 6.04342 20.3112 5.96156 20.6826L7.02213 20.9293C7.10399 20.59 7.19773 20.2495 7.31043 19.9209L6.26999 19.5816V19.5804ZM5.62106 22.9366C5.60089 23.2557 5.59021 23.5856 5.60089 23.9047H6.69235C6.69235 23.6057 6.69235 23.2973 6.71251 22.9983L5.62106 22.9366Z" fill="#0B0B0B"/>
<path fill-rule="evenodd" clip-rule="evenodd" d="M31.2961 10.3896C32.43 11.4429 33.4294 12.6324 34.2714 13.9309L34.3129 13.9926C35.323 15.5709 36.0803 17.2972 36.5575 19.1093C36.9725 20.6743 37.1768 22.2878 37.1649 23.9069H34.4363C34.4483 22.5283 34.2788 21.1542 33.9321 19.8199C33.5232 18.2778 32.8773 16.8086 32.0174 15.4648L31.9865 15.4138C31.2842 14.3274 30.451 13.3313 29.5059 12.448L29.5877 10.7076L31.2961 10.3896Z" fill="#3754E2"/>
<path fill-rule="evenodd" clip-rule="evenodd" d="M3.5642 23.8868V23.9069H0.835596C0.809955 20.8412 1.56128 17.8189 3.01945 15.1221C4.47762 12.4252 6.59513 10.1417 9.17444 8.48443C11.1775 7.19027 13.4169 6.3056 15.7636 5.88146C18.1103 5.45732 20.5178 5.50212 22.8471 6.01327C25.1682 6.51953 27.3682 7.47422 29.3234 8.82372L27.1512 10.6566C24.6706 9.11384 21.8035 8.30608 18.8824 8.32707C15.9613 8.34807 13.106 9.19697 10.6479 10.7753C8.46112 12.178 6.66529 14.1118 5.42795 16.3962C4.18804 18.6971 3.54711 21.2731 3.5642 23.8868Z" fill="#0B0B0B"/>
<path fill-rule="evenodd" clip-rule="evenodd" d="M35.693 5.37521L21.3608 21.7219C21.3472 22.066 21.2594 22.4031 21.1033 22.7101C20.9456 23.0261 20.7166 23.3011 20.4342 23.5133C20.1884 23.7036 19.9068 23.8427 19.6063 23.9224C19.3057 24.0021 18.9923 24.0207 18.6844 23.9771C18.0636 23.8934 17.5011 23.5676 17.1196 23.0708C16.9293 22.8249 16.7902 22.5434 16.7105 22.2428C16.6308 21.9422 16.6122 21.6288 16.6557 21.3209C16.7395 20.7001 17.0652 20.1376 17.5621 19.7561C17.7669 19.5999 17.9968 19.4795 18.2419 19.4002C18.4771 19.3201 18.7242 19.28 18.9727 19.2816L35.61 5.28268C35.6183 5.27528 35.6281 5.26966 35.6387 5.26618C35.6493 5.2627 35.6605 5.26141 35.6716 5.26241C35.6827 5.26341 35.6935 5.26668 35.7033 5.272C35.7131 5.27731 35.7217 5.28458 35.7286 5.29335C35.7232 5.32301 35.7111 5.35103 35.693 5.37521Z" fill="#3754E2"/>
</svg>
