<svg width="16" height="17" viewBox="0 0 16 17" fill="none" xmlns="http://www.w3.org/2000/svg">
<path d="M11.333 1.93335H4.66634C2.82539 1.93335 1.33301 3.42573 1.33301 5.26668V11.9333C1.33301 13.7743 2.82539 15.2667 4.66634 15.2667H11.333C13.174 15.2667 14.6663 13.7743 14.6663 11.9333V5.26668C14.6663 3.42573 13.174 1.93335 11.333 1.93335Z" stroke="#0B0B0B" stroke-width="1.33333" stroke-linecap="round" stroke-linejoin="round"/>
<path d="M10.6668 8.18005C10.7491 8.73489 10.6543 9.30153 10.396 9.7994C10.1376 10.2973 9.72889 10.701 9.22788 10.9532C8.72687 11.2053 8.1591 11.2931 7.60532 11.204C7.05155 11.1149 6.53997 10.8534 6.14336 10.4568C5.74674 10.0602 5.48528 9.54864 5.39618 8.99486C5.30707 8.44109 5.39484 7.87332 5.64701 7.3723C5.89919 6.87129 6.30292 6.46255 6.80079 6.20422C7.29865 5.94588 7.8653 5.85111 8.42013 5.93339C8.98608 6.01731 9.51003 6.28103 9.91459 6.68559C10.3192 7.09015 10.5829 7.61411 10.6668 8.18005Z" stroke="#0B0B0B" stroke-width="1.33333" stroke-linecap="round" stroke-linejoin="round"/>
<path d="M11.667 4.93335H11.6737" stroke="#0B0B0B" stroke-width="1.33333" stroke-linecap="round" stroke-linejoin="round"/>
</svg>
