<svg width="128" height="21" viewBox="0 0 128 21" fill="none" xmlns="http://www.w3.org/2000/svg">
<path d="M29.1441 0.593334C27.784 0.593334 26.4391 0.885073 25.2051 1.44925C20.746 3.49358 17.8386 6.84859 17.8386 10.6412C17.8386 14.4339 20.746 17.7889 25.2051 19.8332C26.4391 20.3995 27.784 20.6891 29.1441 20.6891H40.8196C42.2037 20.6891 43.3266 19.5822 43.3266 18.2179V3.06239C43.3266 1.69808 42.2037 0.591187 40.8196 0.591187H29.1441V0.593334Z" fill="black"/>
<path d="M3.71483 0.594616C3.08807 0.594616 2.5179 0.942132 2.23281 1.49344C0.805205 4.23709 0 7.34755 0 10.6447C0 13.9418 0.805205 17.0501 2.23281 19.7959C2.5179 20.345 3.09025 20.6947 3.71483 20.6947H12.1129C12.4459 20.6947 12.7027 20.4008 12.6504 20.0769C12.1608 17.005 11.9062 13.8538 11.9062 10.6468C11.9062 7.4398 12.1608 4.28856 12.6504 1.2167C12.7027 0.892785 12.4459 0.598898 12.1129 0.598898H3.71483V0.594616Z" fill="black"/>
<path d="M55.7617 18.1789C56.0707 18.1789 56.3057 17.9086 56.26 17.6083C55.8988 15.3194 55.7181 12.9962 55.7181 10.643C55.7181 8.28973 55.9009 5.96439 56.26 3.67551C56.3079 3.37733 56.0707 3.10704 55.7638 3.10704H54.5604C54.3123 3.10704 54.099 3.28509 54.062 3.52749C53.7029 5.86571 53.5223 8.24253 53.5223 10.643C53.5223 13.0434 53.7029 15.4202 54.062 17.7584C54.099 18.0008 54.3123 18.1789 54.5604 18.1789H55.7617Z" fill="black"/>
<path d="M62.8528 18.1787H64.4958C64.942 18.1787 65.1661 17.6467 64.8505 17.3335L60.6243 13.1676C59.9453 12.4983 59.5384 11.5952 59.5362 10.6471C59.534 9.70535 59.904 8.82154 60.5786 8.15654L64.8484 3.94775C65.1639 3.6367 64.9398 3.10256 64.4936 3.10256H63.016C62.7505 3.10256 62.4937 3.20768 62.3065 3.39216L59.0248 6.62706C57.9367 7.69963 57.3382 9.12401 57.3382 10.6406C57.3382 12.1573 57.9367 13.5816 59.0248 14.6542L62.424 18.0049C62.5394 18.1165 62.6939 18.1787 62.8528 18.1787Z" fill="black"/>
<path d="M66.2633 15.1866C66.2633 12.7175 68.3329 11.6578 73.3404 11.6364V11.3704C73.3404 9.47404 72.4917 8.63743 70.6288 8.63743C69.7801 8.63743 69.0358 8.80047 68.1457 9.10722C67.6082 9.29171 67.3384 9.21019 67.2143 8.82191L67.0489 8.18909C66.9249 7.82227 67.0293 7.57773 67.3797 7.41469C68.124 7.06718 69.7387 6.76256 70.9596 6.76256C74.002 6.76256 75.534 8.27275 75.534 11.1902V17.5355C75.534 17.9646 75.3469 18.1684 74.8921 18.1684H74.2087C73.7539 18.1684 73.5471 17.9646 73.5471 17.5162V17.1687C72.6788 17.9431 71.3948 18.3936 69.9455 18.3936C67.6082 18.3893 66.2633 17.1859 66.2633 15.1866ZM73.3404 15.7186V13.1894C69.7192 13.2302 68.4765 13.7815 68.4765 15.148C68.4765 16.1476 69.1599 16.6775 70.483 16.6775C71.5211 16.6775 72.5961 16.3299 73.3404 15.7186Z" fill="black"/>
<path d="M78.7161 17.5459V7.63099C78.7161 7.18266 78.9033 6.97886 79.3581 6.97886H80.061C80.5158 6.97886 80.703 7.16335 80.703 7.61168V7.91844C81.4886 7.24486 82.8553 6.77507 84.1175 6.77507C86.6833 6.77507 87.9259 8.22305 87.9259 11.2027V17.548C87.9259 17.9964 87.7605 18.1809 87.2839 18.1809H86.3938C85.9172 18.1809 85.7323 17.9964 85.7323 17.548V11.4279C85.7323 9.49083 85.0903 8.65422 83.5582 8.65422C82.6485 8.65422 81.6127 9.00175 80.9097 9.57236V17.5502C80.9097 17.9985 80.7226 18.183 80.2677 18.183H79.3581C78.9033 18.1787 78.7161 17.9942 78.7161 17.5459Z" fill="black"/>
<path d="M91.5623 14.2498V4.98703C91.5623 4.51724 91.6863 4.27269 92.0998 4.17187L92.7004 4.0689C92.9289 4.00669 93.1139 3.96593 93.238 3.96593C93.5905 3.96593 93.7559 4.15042 93.7559 4.59876V7.02707H96.2042C96.659 7.02707 96.8657 7.23086 96.8657 7.67919V8.24981C96.8657 8.69815 96.659 8.88262 96.2042 8.88262H93.7559V14.1061C93.7559 15.657 94.0867 16.4722 95.4947 16.4722C96.1976 16.4722 96.572 16.2684 96.881 16.2684C97.1704 16.2684 97.3162 16.4314 97.3162 16.7982V17.4718C97.3162 17.8386 97.2139 18.0231 96.6546 18.2055C96.3021 18.3084 95.8277 18.3899 95.2466 18.3899C92.8658 18.3899 91.5623 17.3903 91.5623 14.2498Z" fill="black"/>
<path d="M98.9813 15.1866C98.9813 12.7175 101.051 11.6578 106.058 11.6364V11.3704C106.058 9.47404 105.21 8.63743 103.347 8.63743C102.498 8.63743 101.754 8.80047 100.864 9.10722C100.326 9.29171 100.056 9.21019 99.9323 8.82191L99.7669 8.18909C99.6429 7.82227 99.7473 7.57773 100.098 7.41469C100.842 7.06718 102.457 6.76256 103.678 6.76256C106.72 6.76256 108.252 8.27275 108.252 11.1902V17.5355C108.252 17.9646 108.065 18.1684 107.61 18.1684H106.927C106.472 18.1684 106.265 17.9646 106.265 17.5162V17.1687C105.397 17.9431 104.113 18.3936 102.663 18.3936C100.326 18.3893 98.9813 17.1859 98.9813 15.1866ZM106.058 15.7186V13.1894C102.437 13.2302 101.195 13.7815 101.195 15.148C101.195 16.1476 101.878 16.6775 103.201 16.6775C104.237 16.6775 105.314 16.3299 106.058 15.7186Z" fill="black"/>
<path d="M111.616 17.5459V7.63099C111.616 7.18266 111.803 6.97886 112.258 6.97886H112.961C113.416 6.97886 113.603 7.16335 113.603 7.61168V7.91844C114.369 7.24486 115.714 6.77507 116.976 6.77507C118.321 6.77507 119.294 7.24487 119.894 8.14154C121.054 7.22342 122.336 6.77507 123.703 6.77507C126.207 6.77507 127.428 8.22305 127.428 11.2027V17.548C127.428 17.9964 127.241 18.1809 126.786 18.1809H125.874C125.42 18.1809 125.233 17.9964 125.233 17.548V11.4687C125.233 9.51014 124.612 8.65422 123.163 8.65422C122.314 8.65422 121.424 8.98029 120.451 9.67317C120.556 10.1623 120.617 10.7136 120.617 11.2434V17.548C120.617 17.9964 120.43 18.1809 119.975 18.1809H119.065C118.61 18.1809 118.423 17.9964 118.423 17.548V11.4687C118.423 9.48869 117.803 8.65422 116.353 8.65422C115.485 8.65422 114.491 9.00175 113.807 9.57236V17.5502C113.807 17.9985 113.62 18.183 113.165 18.183H112.256C111.803 18.1787 111.616 17.9942 111.616 17.5459Z" fill="black"/>
</svg>
