<svg width="16" height="17" viewBox="0 0 16 17" fill="none" xmlns="http://www.w3.org/2000/svg">
<path fill-rule="evenodd" clip-rule="evenodd" d="M10.677 6.88108C11.4947 7.46243 12.474 7.77303 13.4774 7.76926V5.7808C13.2801 5.78134 13.0834 5.76023 12.8908 5.71783V7.30197C11.8852 7.30375 10.9044 6.98959 10.087 6.40385V10.4935C10.0846 11.1645 9.90054 11.8224 9.55446 12.3974C9.20839 12.9723 8.71317 13.4429 8.12132 13.7592C7.52947 14.0755 6.86305 14.2258 6.19273 14.194C5.52241 14.1623 4.87317 13.9497 4.31387 13.5789C4.83121 14.1023 5.49225 14.4605 6.21328 14.608C6.93431 14.7555 7.68289 14.6857 8.36424 14.4075C9.04559 14.1293 9.62905 13.6551 10.0408 13.0451C10.4524 12.4351 10.6739 11.7166 10.677 10.9806V6.88108ZM11.4027 4.85285C10.9869 4.4021 10.7317 3.82651 10.677 3.21568V2.95718H10.1202C10.189 3.34545 10.3388 3.71489 10.5597 4.04149C10.7807 4.36809 11.0679 4.64453 11.4027 4.85285ZM5.60305 12.0047C5.41008 11.7523 5.29182 11.4509 5.26173 11.1346C5.23165 10.8184 5.29095 10.5 5.43288 10.2158C5.57481 9.93163 5.79367 9.69297 6.06456 9.52703C6.33545 9.36108 6.64749 9.27451 6.96515 9.27718C7.14054 9.27713 7.31489 9.30395 7.48215 9.35672V7.30197C7.28663 7.27608 7.08943 7.265 6.89224 7.26883V8.86623C6.48498 8.73749 6.04418 8.76677 5.65751 8.94823C5.27085 9.12969 4.96666 9.45005 4.80544 9.84558C4.64422 10.2411 4.63779 10.6828 4.78742 11.0829C4.93705 11.483 5.23178 11.812 5.613 12.0047H5.60305Z" fill="#161616"/>
<path fill-rule="evenodd" clip-rule="evenodd" d="M10.0868 6.39059C10.9041 6.97633 11.8849 7.2905 12.8905 7.28871V5.70457C12.3175 5.58343 11.7971 5.28552 11.4025 4.85285C11.0676 4.64453 10.7804 4.36809 10.5595 4.04149C10.3385 3.71489 10.1887 3.34545 10.1199 2.95718H8.65506V10.9806C8.6537 11.3358 8.54115 11.6816 8.33322 11.9695C8.12529 12.2574 7.83242 12.473 7.49572 12.5859C7.15901 12.6989 6.79539 12.7036 6.45589 12.5993C6.11638 12.4951 5.81805 12.2871 5.60277 12.0047C5.26159 11.8325 4.98836 11.5505 4.82716 11.204C4.66596 10.8575 4.62619 10.4668 4.71428 10.095C4.80236 9.7231 5.01315 9.39176 5.31264 9.1544C5.61214 8.91704 5.98287 8.7875 6.36501 8.78669C6.54035 8.78725 6.71462 8.81406 6.88201 8.86623V7.26883C6.15874 7.28619 5.45627 7.51436 4.86085 7.92532C4.26542 8.33629 3.80294 8.91217 3.53019 9.58226C3.25743 10.2524 3.18627 10.9875 3.32543 11.6975C3.4646 12.4075 3.80803 13.0613 4.31358 13.5789C4.873 13.9524 5.52326 14.1671 6.19509 14.2003C6.86692 14.2334 7.53515 14.0837 8.12861 13.7671C8.72207 13.4504 9.21854 12.9788 9.56512 12.4023C9.9117 11.8258 10.0954 11.1661 10.0967 10.4935L10.0868 6.39059Z" fill="#161616"/>
<path fill-rule="evenodd" clip-rule="evenodd" d="M12.8905 5.70457L12.8907 5.27691C12.3645 5.27915 11.8486 5.13219 11.4027 4.85285C11.7964 5.28677 12.317 5.58493 12.8905 5.70457ZM10.1202 2.95718C10.1202 2.88095 10.0969 2.80128 10.0869 2.72505V2.46655H8.06533V10.4933C8.06358 10.9428 7.88358 11.3732 7.56484 11.69C7.24609 12.0069 6.81465 12.1844 6.3652 12.1835C6.10055 12.1848 5.83945 12.1237 5.60305 12.0047C5.81834 12.2871 6.11638 12.4951 6.45589 12.5993C6.79539 12.7036 7.15901 12.6989 7.49572 12.5859C7.83242 12.473 8.12529 12.2574 8.33322 11.9695C8.54115 11.6816 8.6537 11.3358 8.65506 10.9806V2.95718H10.1202ZM6.8822 7.26538V6.81135C6.05032 6.69834 5.20469 6.87041 4.48313 7.29953C3.76157 7.72865 3.20663 8.38951 2.90874 9.1744C2.61085 9.95929 2.58758 10.8219 2.84273 11.6217C3.09787 12.4215 3.61649 13.1115 4.31387 13.5789C3.81214 13.0602 3.47227 12.4064 3.33594 11.6977C3.19962 10.989 3.27265 10.256 3.54612 9.58813C3.81959 8.92028 4.28165 8.34653 4.87586 7.93699C5.47007 7.52744 6.17069 7.29983 6.89214 7.28195L6.8822 7.26538Z" fill="#0B0B0B"/>
</svg>
