<svg width="20" height="21" viewBox="0 0 20 21" fill="none" xmlns="http://www.w3.org/2000/svg">
<path d="M15.5519 4.77601L15.5518 4.77596C14.0793 3.30865 12.1229 2.50067 10.0348 2.49988L15.5519 4.77601ZM15.5519 4.77601C17.0248 6.24337 17.8339 8.19096 17.8332 10.2645C17.8317 14.5399 14.3344 18.0232 10.0348 18.0232H10.0314C10.0314 18.0232 10.0313 18.0232 10.0313 18.0232C8.72552 18.0228 7.44278 17.697 6.30435 17.0788L6.13068 16.9844L5.93945 17.0344L2.37836 17.964M15.5519 4.77601L2.37836 17.964M2.37836 17.964L3.326 14.5193L3.3816 14.3171L3.27643 14.1358C2.59456 12.96 2.23539 11.6258 2.23614 10.2582L2.23614 10.2581C2.23763 5.98288 5.73436 2.49997 10.0347 2.49988L2.37836 17.964ZM10.0321 17.6285H10.0319C8.70552 17.6281 7.40375 17.2733 6.26719 16.6023L6.26697 16.6022L6.19432 16.5593L3.78511 17.1882L2.94702 17.407L3.17672 16.5718L3.81492 14.2514L3.76888 14.1784C3.02788 13.0054 2.63632 11.6494 2.63716 10.2582L10.0321 17.6285ZM10.0321 17.6285H10.0348C14.1105 17.6285 17.4304 14.3272 17.4322 10.2641C17.433 8.29702 16.6632 6.44459 15.2669 5.05364C13.8706 3.66237 12.012 2.89542 10.0379 2.89457H10.0377M10.0321 17.6285L10.0377 2.89457M10.0377 2.89457C5.95908 2.89457 2.63892 6.19528 2.63716 10.2581L10.0377 2.89457ZM12.2747 11.8044C12.3803 11.8495 12.6169 11.9603 12.8868 12.0899C13.0782 12.1818 13.2703 12.2754 13.4112 12.3445L13.5947 12.436C13.6385 12.4578 13.6804 12.478 13.7158 12.495C13.7251 12.4995 13.7341 12.5038 13.7424 12.5078C13.742 12.5145 13.7414 12.5214 13.7408 12.5286C13.7293 12.6608 13.6952 12.8424 13.6236 13.0423C13.5955 13.1206 13.4662 13.2752 13.2103 13.4385C12.9669 13.5937 12.7275 13.6817 12.6214 13.6976C12.3054 13.7446 11.9372 13.7593 11.5398 13.6335L11.5394 13.6334C11.2457 13.5407 10.8771 13.4194 10.4042 13.2161C8.61078 12.4451 7.38152 10.7067 7.10965 10.3223C7.08862 10.2925 7.07332 10.2709 7.06393 10.2584L7.06273 10.2569C7.01425 10.1925 6.82499 9.94139 6.64769 9.59381C6.46528 9.23619 6.31785 8.81912 6.31785 8.4245C6.31785 7.67357 6.67002 7.29893 6.87023 7.08596C6.88489 7.07036 6.89874 7.05563 6.91157 7.04168L6.91159 7.04166C6.99076 6.95561 7.072 6.94493 7.09674 6.94493C7.23415 6.94493 7.36181 6.94616 7.4697 6.95146L7.4704 6.93717C7.47274 6.94163 7.47522 6.94651 7.47784 6.95184M12.2747 11.8044L7.57635 10.0792C7.45587 9.87327 7.41321 9.63662 7.50074 9.40226C7.56604 9.22744 7.69184 9.10434 7.73851 9.05867C7.74154 9.0557 7.74424 9.05306 7.74657 9.05075L8.09863 9.40579L7.74593 9.05138C7.79174 9.00579 7.83582 8.95217 7.89287 8.88277C7.9315 8.83577 7.97608 8.78154 8.03117 8.71767L8.03125 8.71759C8.0753 8.66653 8.08581 8.64538 8.13311 8.55015C8.13541 8.54553 8.13779 8.54074 8.14026 8.53577M12.2747 11.8044C12.0844 12.0608 11.7538 12.4454 11.6536 12.5593M12.2747 11.8044L10.6059 12.7278C10.7424 12.7958 10.9307 12.8673 11.1457 12.8415C11.381 12.8132 11.5449 12.6828 11.6536 12.5593M7.47784 6.95184C7.47455 6.9517 7.47119 6.95154 7.46776 6.95136L7.46868 6.93392C7.45604 6.91019 7.44787 6.89931 7.44576 6.8967C7.44563 6.89654 7.44556 6.89646 7.44556 6.89646C7.44556 6.89646 7.44952 6.90113 7.45808 6.90805C7.46148 6.91081 7.46533 6.91369 7.4696 6.9166L7.49424 6.45206M7.47784 6.95184C7.49179 6.95242 7.50429 6.95263 7.51445 6.95271L7.54569 6.95272L7.56316 6.95274C7.56675 6.95279 7.56816 6.95287 7.56816 6.95287L7.56815 6.95287C7.56771 6.95284 7.55927 6.95236 7.54627 6.94951C7.53264 6.94653 7.51629 6.94146 7.4991 6.93338C7.48853 6.92841 7.47926 6.92305 7.47135 6.91778L7.49424 6.45206M7.47784 6.95184C7.48424 6.9649 7.49145 6.98064 7.49932 6.99946L7.49944 6.99974C7.55898 7.1418 7.64724 7.35554 7.73991 7.57998C7.78104 7.67959 7.82304 7.78129 7.86378 7.87978C7.97729 8.15416 8.09242 8.43166 8.14026 8.53577M7.49424 6.45206C7.37326 6.44612 7.23521 6.44493 7.09674 6.44493C6.95826 6.44493 6.73382 6.49641 6.54363 6.70312L7.96058 6.80647C7.81213 6.45167 7.66155 6.45226 7.54099 6.45273C7.52484 6.4528 7.50923 6.45286 7.49424 6.45206ZM8.14026 8.53577C8.14904 8.5181 8.15902 8.4981 8.17053 8.47523L8.2484 8.51444M8.14026 8.53577C8.1452 8.5465 8.14941 8.55539 8.15284 8.56224L8.2484 8.51444M8.2484 8.51444L8.60002 8.33857L8.24864 8.51456L8.61711 8.70012L8.24827 8.51475L8.2484 8.51444ZM11.6536 12.5593L11.2783 12.2288L11.6541 12.5587C11.6539 12.5589 11.6537 12.5591 11.6536 12.5593ZM7.57642 10.0793C7.70599 10.3008 8.15392 11.0303 8.82948 11.6301L8.82962 11.6303C9.56248 12.2805 10.2255 12.5637 10.5009 12.6813C10.5475 12.7012 10.583 12.7163 10.6059 12.7277L7.57642 10.0793ZM8.17035 8.47559L8.24803 8.51463L8.15683 8.56024C8.15682 8.56009 8.1568 8.55994 8.15678 8.55978C8.15539 8.54682 8.15544 8.53069 8.15851 8.51329C8.16158 8.49582 8.16668 8.4829 8.17035 8.47559Z" fill="white" stroke="white"/>
</svg>
