<svg width="16" height="17" viewBox="0 0 16 17" fill="none" xmlns="http://www.w3.org/2000/svg">
<path fill-rule="evenodd" clip-rule="evenodd" d="M13.2101 4.2118C13.7849 4.36704 14.2367 4.81999 14.3895 5.39415C14.6673 6.43615 14.6673 8.61159 14.6673 8.61159C14.6673 8.61159 14.6673 10.787 14.3895 11.829C14.2346 12.4053 13.7828 12.8583 13.2101 13.0114C12.1708 13.29 8.00065 13.29 8.00065 13.29C8.00065 13.29 3.83266 13.29 2.79119 13.0114C2.21637 12.8561 1.76457 12.4032 1.61185 11.829C1.33398 10.787 1.33398 8.61159 1.33398 8.61159C1.33398 8.61159 1.33398 6.43615 1.61185 5.39415C1.76669 4.81786 2.21849 4.36491 2.79119 4.2118C3.83266 3.93323 8.00065 3.93323 8.00065 3.93323C8.00065 3.93323 12.1708 3.93323 13.2101 4.2118ZM10.1324 8.61159L6.66859 10.6169V6.60627L10.1324 8.61159Z" fill="#0B0B0B"/>
</svg>
